<?xml version="1.0" encoding="utf-8"?>
<!-- Generator: Adobe Illustrator 24.0.1, SVG Export Plug-In . SVG Version: 6.00 Build 0)  -->
<svg version="1.1" id="Layer_3" xmlns="http://www.w3.org/2000/svg" xmlns:xlink="http://www.w3.org/1999/xlink" x="0px" y="0px"
	 width="64px" height="64px" viewBox="0 0 64 64" style="enable-background:new 0 0 64 64;" xml:space="preserve">
<style type="text/css">
	.st0{fill:#4C4B4D;}
	.st1{fill:#DBDADA;}
	.st2{fill:#EAEAEA;}
	.st3{fill:#7A7A7A;}
	.st4{fill:#919191;}
	.st5{fill-opacity:0.2;}
	.st6{fill:#FFFFFF;}
	.st7{display:none;fill:#FFFFFF;}
	.st8{fill-opacity:0.1;}
	.st9{fill:#B1B1B1;}
</style>
<rect class="st0" width="64" height="64"/>
<circle class="st1" cx="32" cy="32" r="32"/>
<path class="st2" d="M32,64c8.839722,0,16.842163-3.584473,22.633484-9.378967
	C50.951782,45.746399,42.206421,39.503052,32,39.503052c-10.20636,0-18.951782,6.243347-22.633484,15.11792
	C15.157898,60.415527,23.160278,64,32,64z"/>
<circle class="st3" cx="16.928438" cy="43.032104" r="4.428051"/>
<path class="st3" d="M13.306741,41.843334c0,0-0.415431-1.626919-1.928916-2.583096s-3.42557,1.160484-5.265467-0.916672
	c-0.255138,0.656128,1.626503,3.989719,2.885494,4.691387s3.712267,0.486073,3.712267,0.486073L13.306741,41.843334z"/>
<path class="st4" d="M44.80304,34.660522c0,0-1.026733,5.662842-4.372681,5.261902
	C39.563843,46.437256,34.821716,48.944702,32,48.944702s-7.563782-2.507446-8.430359-9.022278
	c-3.345947,0.40094-4.372681-5.261902-4.372681-5.261902l-0.81073,0.247192
	c-3.434204,4.096008-4.846375,12.921631-4.846375,12.921631s5.907043,3.784851,11.071838,11.115601
	c1.1828,1.678894,2.17981,3.268616,3.045288,4.753723C29.078064,63.891602,30.526001,64,32,64s2.921997-0.108398,4.343079-0.301331
	c0.865479-1.485107,1.862427-3.074829,3.045288-4.753723c5.164795-7.33075,11.071777-11.115601,11.071777-11.115601
	s-1.41217-8.825623-4.846375-12.921631L44.80304,34.660522z"/>
<path class="st3" d="M22.096741,41.175476c-3.418213,0.295105-4.774658-3.28833-5.070496-4.228271
	c-1.062439,1.923035-1.859497,4.215454-2.420166,6.208313c1.184143,0.522583,2.66095,0.875916,4.298218,0.967773
	C20.587708,47.007019,25.817749,49.117004,32,49.117004v-0.172302c-0.588928,0-1.263245-0.116699-1.966736-0.348755
	C26.829407,47.936829,22.931824,45.698975,22.096741,41.175476z"/>
<path class="st2" d="M18.078575,33.595196l-3.634082-4.575569c-0.905529-0.423115-1.589351-0.590866-2.084053-0.507524
	c-0.361143,0.059299-0.759149,0.405485-1.705279,1.251713c-0.627727,0.561481-1.408779,1.260262-2.215474,1.858072
	c-0.643219,0.476002-1.325438,0.823792-1.927522,1.130978c-1.119223,0.57056-2.085655,1.063126-1.990027,2.087257
	c0.037396,0.400677,0.304514,0.802956,0.772505,1.163563c0.549728,0.424183,2.357047,1.499065,6.497371,1.499065
	c1.472887,0,3.241206-0.135696,5.352504-0.486153L18.078575,33.595196z"/>
<path class="st2" d="M45.92025,33.595196l3.634083-4.575569c0.905529-0.423115,1.589348-0.590866,2.084049-0.507524
	c0.361145,0.059299,0.759151,0.405485,1.70528,1.251713c0.627728,0.561481,1.408779,1.260262,2.215473,1.858072
	c0.643223,0.476002,1.325439,0.823792,1.927525,1.130978c1.119221,0.57056,2.085655,1.063126,1.990025,2.087257
	c-0.037395,0.400677-0.304512,0.802956-0.772503,1.163563c-0.549728,0.424183-2.357048,1.499065-6.497372,1.499065
	c-1.472889,0-3.241207-0.135696-5.352505-0.486153L45.92025,33.595196z"/>
<path class="st5" d="M12.360413,28.512085c-0.361145,0.059326-0.759094,0.405457-1.705261,1.251709
	c-0.13855,0.123901-0.287109,0.25647-0.439209,0.391174c0.502686,1.691589,1.648193,3.151611,3.215698,4.034424
	c-0.111511,0.514038-0.184998,1.037354-0.184998,1.569397c0,0.580261,0.074646,1.142212,0.201721,1.684265
	c1.099304-0.067688,2.317627-0.197632,3.696167-0.426453l0.934021-3.421448l-3.634033-4.575562
	C13.53894,28.596497,12.855164,28.428772,12.360413,28.512085z"/>
<g>
	<g>
		<circle class="st6" cx="32" cy="19.11043" r="6.069018"/>
		<circle class="st6" cx="32" cy="38.696594" r="10.420411"/>
		<circle class="st6" cx="25.930981" cy="20.881903" r="6.069018"/>
		<circle class="st6" cx="21.679447" cy="24.111963" r="6.069018"/>
		<circle class="st6" cx="19.608896" cy="29.041302" r="6.069018"/>
		<circle class="st6" cx="22.261261" cy="35.110321" r="6.069018"/>
	</g>
	<path class="st7" d="M50.343506,29.211914c0-2.301941-1.41925-4.363159-3.508301-5.235474
		c-0.452515-2.869507-2.935242-5.07312-5.929504-5.07312H23.094299c-2.994263,0-5.47699,2.203613-5.929504,5.07312
		c-2.08905,0.872314-3.508301,2.933533-3.508301,5.235474c0,2.058594,1.134155,3.946838,2.9104,4.947205
		c-0.092712,0.427246-0.153748,0.862244-0.153748,1.304443c0,3.160583,2.399292,5.770203,5.471619,6.107422
		C23.185059,45.928589,27.224792,49.117004,32,49.117004s8.814941-3.188416,10.115234-7.546021
		c3.072327-0.337219,5.471619-2.946838,5.471619-6.107422c0-0.4422-0.061035-0.877197-0.153748-1.304443
		C49.209351,33.158752,50.343506,31.270508,50.343506,29.211914z"/>
	<path class="st8" d="M44.020264,27.408813c-1.234497-0.337524-3.142334-0.937439-6.060242-0.787476
		c-2.917847,0.149963-4.203857,1.57489-7.113892,1.57489c-2.910095,0-4.196045-1.424927-7.113892-1.57489
		c-2.917908-0.149963-4.825745,0.449951-6.060242,0.787476c0.037354,1.424805,0,2.437256,0,2.437256
		s0.60022-0.072693,0.984314,0.318665c0.556519,0.567078,0.147278,2.699768,2.481445,3.866211
		c0.343018,0.171387,0.709534,0.302002,1.085938,0.408997c0.014038,0.039673,0.030579,0.088806,0.041931,0.119141
		c0.720703,1.923279,2.770508,6.191833,4.119507,7.492126c1.367065,1.321716,4.25415,1.571716,5.614868,1.571716l-6.856506-9.034485
		c0.681641-0.116272,1.36731-0.327942,2.034973-0.669373c2.095642-1.071655,2.102722-4.110535,3.667664-4.110535
		s1.57196,3.038879,3.667603,4.110535c2.062256,1.054565,4.299866,0.981873,6.04071,0.111877
		c2.334167-1.166443,1.924988-3.299133,2.481506-3.866211c0.384094-0.391357,0.984314-0.318665,0.984314-0.318665
		S43.982849,28.833618,44.020264,27.408813z"/>
	<path class="st1" d="M39.292385,24.615923c0.452831-0.281208,0.876213-0.61377,1.222263-1.040155l-0.848366-0.689165
		c-0.714809,0.879887-1.774731,1.384739-2.906242,1.384739c-0.440678,0-0.868866-0.084944-1.275085-0.232527
		c0.426319-0.263176,0.828934-0.570429,1.193882-0.931038l-0.769299-0.777847
		c-1.048168,1.035349-2.436115,1.605377-3.909534,1.605377c-1.472887,0-2.861366-0.570028-3.909534-1.605377l-0.7693,0.777847
		c0.364883,0.360542,0.767496,0.667727,1.19375,0.930904c-0.406353,0.147717-0.834543,0.23266-1.274954,0.23266
		c-1.13258,0-2.191433-0.504852-2.90624-1.384739l-0.849434,0.689165c0.346184,0.426453,0.769766,0.759081,1.222797,1.040356
		c-2.169529,5.029293-0.851639,9.141769-0.551264,9.942989c0.720684,1.923248,2.770544,6.191788,4.11949,7.492119
		c1.367107,1.321697,2.363991,1.57172,3.724689,1.57172c1.360165,0,2.357048-0.250023,3.725758-1.57172
		c1.350548-1.303535,3.398804-5.570473,4.117886-7.491585C40.144489,33.757893,41.462582,29.645283,39.292385,24.615923z"/>
	<path class="st4" d="M45.204899,26.408817c-1.237354-0.337503-3.149651-0.93745-6.07439-0.787462
		c-2.924671,0.149986-4.213646,1.574858-7.130505,1.574858s-4.205835-1.424871-7.130508-1.574858
		c-2.924738-0.149988-4.837034,0.449959-6.07439,0.787462c0.037464,1.424807,0,2.437248,0,2.437248
		s0.601616-0.072655,0.986601,0.318672c0.557808,0.567091,0.147648,2.699759,2.487267,3.866196
		c1.744946,0.870003,3.987801,0.942726,6.054823-0.111855c2.100548-1.071678,2.107626-4.110542,3.676208-4.110542
		c1.568581,0,1.575661,3.038864,3.676208,4.110542c2.06702,1.054581,4.309875,0.981857,6.054821,0.111855
		c2.339619-1.166437,1.929459-3.299105,2.487267-3.866196c0.384983-0.391327,0.986599-0.318672,0.986599-0.318672
		S45.167439,27.833624,45.204899,26.408817z"/>
	<path class="st9" d="M32.000004,41.583527c-1.018085,0-3.002253-1.299801-3.100647-2.442093
		c-0.098488-1.1422,1.820581-1.477699,3.100647-1.477699c1.280064,0,3.199135,0.335499,3.100647,1.477699
		C35.002254,40.283726,33.018089,41.583527,32.000004,41.583527z"/>
	<path class="st6" d="M33.521473,40.036804c0,0.052185-0.010803,0.101379-0.015381,0.152344
		c0.126282-0.189636,0.217834-0.404358,0.217834-0.649292c0-0.660706-0.535583-1.196289-1.196289-1.196289
		c-0.091492,0-0.172302,0.032593-0.257874,0.052063C32.990101,38.597595,33.521473,39.251953,33.521473,40.036804z"/>
	<path class="st8" d="M40.356445,32.490234c0.284241-1.84082,0.31897-4.669128-1.064087-7.874329
		c0.452881-0.281189,0.876221-0.61377,1.22229-1.040161l-0.848389-0.689148c-0.714783,0.879883-1.774719,1.384705-2.906189,1.384705
		c-0.440735,0-0.868896-0.0849-1.275146-0.232483c0.426331-0.263184,0.828979-0.570435,1.193909-0.93103l-0.769287-0.777893
		C34.861389,23.365234,33.47345,23.935303,32,23.935303c-0.071045,0-0.138672-0.0177-0.20929-0.020325
		c0.7005,2.015808,2.426636,3.550964,4.559998,3.966492c0.356445,0.707336,0.845581,1.334412,1.437195,1.84967
		c-0.006836,0.118225-0.017944,0.235413-0.017944,0.355347c0,0.340271,0.034912,0.671753,0.088745,0.996765
		c-1.650024,1.084778-2.74115,2.950012-2.74115,5.072266c0,3.351807,2.717224,6.06897,6.069031,6.06897
		c0.209167,0,0.415955-0.010559,0.61969-0.03125c0.390442-1.094482,0.614136-2.268066,0.614136-3.496643
		C42.42041,36.367981,41.647217,34.225159,40.356445,32.490234z"/>
	<g>
		<circle class="st6" cx="38.069019" cy="20.881903" r="6.069018"/>
		<circle class="st6" cx="42.320553" cy="24.111963" r="6.069018"/>
		<circle class="st6" cx="44.391106" cy="29.041302" r="6.069018"/>
		<circle class="st6" cx="41.738739" cy="35.110321" r="6.069018"/>
	</g>
</g>
<path class="st6" d="M42.760742,30.523743c0,0.360901-0.057434,0.705933-0.14093,1.041016
	c0.452271-0.558472,0.734497-1.260254,0.734497-2.034851c0-1.795349-1.455444-3.250793-3.250793-3.250793
	c-0.218994,0-0.432556,0.023132-0.639404,0.064453C41.353149,26.802551,42.760742,28.49353,42.760742,30.523743z"/>
<path class="st6" d="M26.286072,26.444763c-0.004089,0-0.007813,0.001221-0.011902,0.001221
	c1.497925,0.676331,2.544861,2.175598,2.544861,3.925903c0,0.617371-0.134399,1.20166-0.368042,1.732666
	c0.661804-0.595093,1.085815-1.448914,1.085815-2.408997C29.536804,27.900208,28.081421,26.444763,26.286072,26.444763z"/>
</svg>
