<?xml version="1.0" encoding="utf-8"?>
<!-- Generator: Adobe Illustrator 26.1.0, SVG Export Plug-In . SVG Version: 6.00 Build 0)  -->
<svg version="1.1" id="LOGO" xmlns="http://www.w3.org/2000/svg" xmlns:xlink="http://www.w3.org/1999/xlink" x="0px" y="0px"
	 width="339px" height="198px" viewBox="0 0 339 198" style="enable-background:new 0 0 339 198;" xml:space="preserve">
<path id="XMLID_00000131340660026111214700000013429344037669686945_" d="M231.772522,121.387573L214.22168,97.54187h6.569458
	l14.311462,19.446289l14.304688-19.446289h6.583008l-17.556702,23.842773l19.237305,26.233398h-6.579102L235.1026,125.910095
	l-15.986389,21.707947h-6.579102L231.772522,121.387573z M126.460022,147.618042l-19.236328-26.233398l17.555603-23.842773
	h-6.575195l-14.3125,19.446289L89.587891,97.54187h-6.5849l17.566406,23.845703l-19.240295,26.230469h6.577209l15.985291-21.707947
	l15.988281,21.707947H126.460022z M129.198303,147.618042v-23.462891c0,0-9.6875,0-10.401428,0
	c0.751038-1.123962,2.743225-3.881897,3.622131-5.01947c0.234375,0,6.779297,0,6.779297,0V97.54187h20.322205
	c15.104492,0,16.274475,10.432617,16.274475,13.62793c0,4.332092-2.373047,8.048828-6.006897,10.017578
	c1.088928,0.508789,2.23053,1.194275,3.270508,2.091797c2.833008,2.424805,4.335022,5.777405,4.335022,9.717773
	c0,9.017639-6.841797,14.621094-17.873108,14.621094H129.198303z M134.814514,119.132629c2.267578,0,14.705994,0,14.705994,0
	c6.773499,0,10.650391-3.134644,10.650391-8.399353c0-6.963928-6.668884-7.958008-10.650391-7.958008c0,0-12.438416,0-14.705994,0
	V119.132629z M134.814514,142.384644c2.267578,0,14.705994,0,14.705994,0c4.573303,0,12.238281-1.243164,12.238281-9.5
	c0-7.186462-6.658203-8.71875-12.238281-8.71875c0,0-12.438416,0-14.705994,0V142.384644z M169.931702,122.554565
	c0-15.401367,9.827087-26.15918,23.904297-26.15918c14.040039,0,23.841797,10.757812,23.841797,26.15918
	c0,15.404297-9.801758,26.166016-23.841797,26.166016C179.758789,148.720581,169.931702,137.958862,169.931702,122.554565z
	 M175.618225,122.554565c0,12.29303,7.486267,20.875977,18.217773,20.875977c10.686523,0,18.157227-8.582947,18.157227-20.875977
	c0-12.289124-7.470703-20.858398-18.157227-20.858398C183.104492,101.696167,175.618225,110.265442,175.618225,122.554565z
	 M196.998657,74.180725c6.547791-6.665466-15.024414-30.316895-27.491211-39.75
	c-12.468811,9.433105-34.037109,33.084534-27.490295,39.75c7.345703,6.427795,16.963867,10.325195,27.490295,10.325195
	C180.036743,84.50592,189.65094,80.608521,196.998657,74.180725z M158.162598,24.030823
	c-14.258789-14.225586-18.042847-10.95459-17.993042-11.001343v0.002869c-7.66803,7.570312-12.421936,18.086426-12.421936,29.711914
	c0,9.935608,3.471741,19.058167,9.264648,26.224731C132.134705,59.906616,149.461914,34.334106,158.162598,24.030823z
	 M201.993713,68.980042c0.00293-0.000916,0.00293-0.000916,0.00293-0.004761
	c5.795898-7.167542,9.270508-16.292542,9.270508-26.231018c0-11.625488-4.754944-22.141602-12.421814-29.711914V13.02948
	c0.048767,0.046753-3.735413-3.224243-17.991333,11.001404C189.558105,34.338074,206.895142,59.92688,201.993713,68.980042z
	 M169.498657,13.313538l0.014587,0.007935l0.011658-0.007935c0,0,10.245239-5.981384,18.246155-6.268005
	c3.142578-0.113281,5.050781,1.027344,5.291992,1.177734c-7.517639-5.016113-15.421814-7.260681-23.538147-7.260681h-0.011658
	h-0.014587c-8.117249,0-16.025452,2.244568-23.5401,7.260681c0.238281-0.150391,2.150391-1.291016,5.293945-1.177734
	C159.25354,7.332153,169.498657,13.313538,169.498657,13.313538z M137.017151,68.979126c0-0.00061,0-0.000732,0-0.003845
	c-0.001648-0.002075-0.003235-0.004211-0.004883-0.006287c0.001892,0.003479,0.002991,0.007568,0.004883,0.011047
	C137.017151,68.979858,137.017151,68.979248,137.017151,68.979126z M112.025635,179.493896h19.469116v-3.461121h-19.469116
	v-11.917908h20.78949v-3.460205h-24.752686v35.383362h24.997925v-3.462158h-21.034729V179.493896z M86.735657,190.410645
	l-12.486084-29.760803h-4.545227v35.384216h3.974854V168.69281l11.392212,27.341248h3.340149l11.248962-27.295105v27.295105
	h3.974792v-35.384216h-4.547729L86.735657,190.410645z M53.422852,160.653748l13.975281,35.384216h-4.260376l-4.219177-10.735474
	H44.186035l-4.266113,10.735474h-4.266846l14.223022-35.384216H53.422852z M57.529236,181.608948l-5.851257-15.4505
	l-6.08075,15.4505H57.529236z M17.965454,181.411621h11.71582c-0.038757,3.444702-1.102234,6.342957-3.10083,8.423035
	c-2.078369,2.163208-5.057434,3.30658-8.61499,3.30658c-2.085083,0-3.979431-0.385071-5.630371-1.144531
	c-1.543457-0.710083-2.877502-1.747986-3.964905-3.085083c-1.05127-1.292603-1.862976-2.850037-2.412537-4.629028
	c-0.543335-1.758911-0.818848-3.693176-0.818848-5.749084c0-4.076538,1.169739-7.808105,3.293762-10.507385
	c2.303833-2.927856,5.60022-4.475403,9.532898-4.475403c5.489075,0,9.486206,3.143799,10.9729,8.626953h3.907837l-0.06134-0.365479
	c-0.603882-3.59906-2.393127-6.640503-5.174194-8.795532c-2.667603-2.066956-6.019043-3.159546-9.692078-3.159546
	c-2.579895,0-4.978271,0.514282-7.128479,1.528503c-2.034241,0.959473-3.812927,2.3479-5.286621,4.126648
	c-2.79834,3.377441-4.339478,8.001831-4.339478,13.02124c0,2.506042,0.365173,4.882812,1.085388,7.064209
	c0.734131,2.223328,1.817993,4.185608,3.221619,5.832397c3.013672,3.535767,7.301819,5.404663,12.400696,5.404663
	c3.104309,0,6.019653-0.786865,8.430847-2.275513c1.337585-0.825867,2.468994-1.836975,3.364502-2.996948v4.475525h3.693542
	v-18.319824H17.965454V181.411621z M307.498962,178.332825c0,10.887085-6.920288,18.480835-16.838562,18.480835
	c-9.935425,0-16.877197-7.59375-16.877197-18.480835c0-10.878296,6.941772-18.476013,16.877197-18.476013
	C300.578674,159.856812,307.498962,167.454529,307.498962,178.332825z M303.485413,178.332825
	c0-8.681213-5.276611-14.73761-12.825012-14.73761c-7.567444,0-12.870422,6.056396-12.870422,14.73761
	c0,8.679199,5.302979,14.742554,12.870422,14.742554C298.208801,193.075378,303.485413,187.012024,303.485413,178.332825z
	 M172.134705,164.422302h11.693298v31.612427h4.140747v-31.612427h11.693298v-3.750427h-27.527344V164.422302z
	 M266.042297,196.034729h4.140747v-35.362854h-4.140747V196.034729z M325.64209,176.228149
	c-0.277466-0.057312-0.555054-0.113953-0.832092-0.170471c-6.091858-1.243408-9.79071-2.290833-9.79071-6.34314
	c0-2.121399,0.909546-3.741028,2.703308-4.813782c1.436646-0.859253,3.450134-1.352112,5.524048-1.352112
	c2.913879,0,5.340515,0.673828,7.017578,1.948669c1.727783,1.313293,2.655334,3.234009,2.756714,5.70874l0.037537,0.916382h3.9776
	l-0.044434-0.998108c-0.319336-7.160339-5.329163-11.266968-13.744995-11.266968c-6.072449,0-12.199707,3.047852-12.199707,9.857178
	c0,3.231323,1.318298,5.593201,4.030396,7.220398c2.2099,1.325989,4.983337,1.969727,8.118042,2.617432l0.53302,0.108826
	c6.306091,1.285828,10.135071,2.383728,10.135071,6.779297c0,2.260986-0.970215,4.005005-2.883728,5.183411
	c-1.545715,0.951965-3.681213,1.497925-5.858948,1.497925c-4.058777,0-7.318237-1.084961-9.177856-3.054932
	c-1.410522-1.494263-2.052856-3.515564-1.909119-6.00769l0.058289-1.010437h-4.018738l-0.010254,0.945007
	c-0.0401,3.681824,1.032532,6.653503,3.18811,8.832581c2.579895,2.608154,6.684326,3.986755,11.869568,3.986755
	c3.059814,0,6.089966-0.824219,8.313538-2.261353c2.879639-1.861084,4.401672-4.665955,4.401672-8.111267
	C337.835999,178.72699,330.787292,177.282593,325.64209,176.228149z M160.090759,176.228149
	c-0.277466-0.057312-0.555054-0.113953-0.832092-0.170471c-6.091858-1.243408-9.79071-2.290833-9.79071-6.34314
	c0-2.121399,0.909546-3.741028,2.703308-4.813782c1.436646-0.859253,3.450134-1.352112,5.524048-1.352112
	c2.913879,0,5.340515,0.673828,7.017578,1.948669c1.727844,1.313293,2.655334,3.234009,2.756775,5.70874l0.037476,0.916382h3.9776
	l-0.044434-0.998108c-0.319336-7.160339-5.329163-11.266968-13.744995-11.266968c-6.072449,0-12.199707,3.047852-12.199707,9.857178
	c0,3.231323,1.318298,5.593201,4.030396,7.220398c2.2099,1.325989,4.983337,1.969727,8.118042,2.617432l0.53302,0.108826
	c6.306091,1.285828,10.135071,2.383728,10.135071,6.779297c0,2.260986-0.970215,4.005005-2.883728,5.183411
	c-1.545715,0.951965-3.681213,1.497925-5.858948,1.497925c-4.058777,0-7.318237-1.084961-9.177856-3.054932
	c-1.410522-1.494263-2.052856-3.515564-1.909119-6.00769l0.058289-1.010437h-4.018738l-0.010254,0.945007
	c-0.0401,3.681824,1.032532,6.653503,3.18811,8.832581c2.579895,2.608154,6.684326,3.986755,11.869568,3.986755
	c3.059814,0,6.089966-0.824219,8.313538-2.261353c2.879639-1.861084,4.401672-4.665955,4.401672-8.111267
	C172.284668,178.72699,165.235962,177.282593,160.090759,176.228149z M261.674927,171.879578
	c0.509094,1.934509,0.767212,4.096802,0.767212,6.42688c0,5.135376-1.376343,9.476013-3.980225,12.552734
	c-1.403625,1.658508-3.153198,2.940308-5.19989,3.809692c-2.133789,0.906372-4.600098,1.365906-7.330444,1.365906h-11.825317
	v-35.362976h11.919006c5.805115,0,10.169067,1.862427,12.970703,5.535522
	C260.197754,167.78302,261.09906,169.691406,261.674927,171.879578z M258.469543,178.306458
	c0-5.643188-1.548523-9.614258-4.6026-11.802979c-2.009583-1.440247-4.681885-2.14032-8.169617-2.14032h-7.61853v27.980347h8.040161
	c2.339417,0,5.68689-0.504944,8.349304-2.910217C257.123352,187.034607,258.469543,183.291016,258.469543,178.306458z
	 M225.70697,181.679871c0,7.92572-3.086609,11.460144-10.007996,11.460144c-2.075134,0-3.833252-0.417297-5.225342-1.240356
	c-1.1651-0.688843-2.108032-1.684204-2.80249-2.958252c-1.003052-1.840271-1.511597-4.283386-1.511597-7.261536v-21.007996
	h-3.972534v21.007996c0,2.45697,0.2005,6.086853,1.934448,9.22876c0.996094,1.804932,2.383545,3.220154,4.123962,4.20636
	c2.009888,1.138916,4.5177,1.71637,7.453552,1.71637c4.984863,0,8.693909-1.506287,11.024231-4.476929
	c1.03894-1.324524,1.813171-2.959167,2.301086-4.858521c0.434753-1.692566,0.655151-3.649414,0.655151-5.81604v-21.007996h-3.972473
	V181.679871z"/>
</svg>
